<svg class="header-bacground"
     xmlns="http://www.w3.org/2000/svg" 
     viewBox="0 0 1440 320"
     width ="600px"
     height = "100px">
    <path
        fill="#111"
        fill-opacity="0.75" 
        d="M0,192L48,170.7C96,149,192,107,288,117.3C384,128,480,192,576,192C672,192,768,128,864,133.3C960,139,1056,213,1152,240C1248,267,1344,245,1392,234.7L1440,224L1440,320L1392,320C1344,320,1248,320,1152,320C1056,320,960,320,864,320C768,320,672,320,576,320C480,320,384,320,288,320C192,320,96,320,48,320L0,320Z">
    </path>
</svg>